<?xml version="1.0" encoding="UTF-8" standalone="no"?>
<!-- Created with Inkscape (http://www.inkscape.org/) -->

<svg
   xmlns:dc="http://purl.org/dc/elements/1.1/"
   xmlns:cc="http://creativecommons.org/ns#"
   xmlns:rdf="http://www.w3.org/1999/02/22-rdf-syntax-ns#"
   xmlns:svg="http://www.w3.org/2000/svg"
   xmlns="http://www.w3.org/2000/svg"
   xmlns:sodipodi="http://sodipodi.sourceforge.net/DTD/sodipodi-0.dtd"
   xmlns:inkscape="http://www.inkscape.org/namespaces/inkscape"
   width="552.56195"
   height="296.25784"
   viewBox="0 0 552.56194 296.25786"
   id="svg2"
   version="1.1"
   inkscape:version="0.91 r13725"
   sodipodi:docname="logo_only.svg"
   inkscape:export-filename="C:\Users\eric\Documents\NCLS Development\Orca\v2\logo_only.png"
   inkscape:export-xdpi="90"
   inkscape:export-ydpi="90">
  <defs
     id="defs4" />
  <sodipodi:namedview
     id="base"
     pagecolor="#ffffff"
     bordercolor="#666666"
     borderopacity="1.0"
     inkscape:pageopacity="0.0"
     inkscape:pageshadow="2"
     inkscape:zoom="2"
     inkscape:cx="227.48988"
     inkscape:cy="181.655"
     inkscape:document-units="px"
     inkscape:current-layer="layer1"
     showgrid="false"
     fit-margin-top="0"
     fit-margin-left="0"
     fit-margin-right="0"
     fit-margin-bottom="0"
     units="px"
     inkscape:window-width="1920"
     inkscape:window-height="1057"
     inkscape:window-x="-8"
     inkscape:window-y="-8"
     inkscape:window-maximized="1" />
  <metadata
     id="metadata7">
    <rdf:RDF>
      <cc:Work
         rdf:about="">
        <dc:format>image/svg+xml</dc:format>
        <dc:type
           rdf:resource="http://purl.org/dc/dcmitype/StillImage" />
        <dc:title></dc:title>
      </cc:Work>
    </rdf:RDF>
  </metadata>
  <g
     inkscape:label="Layer 1"
     inkscape:groupmode="layer"
     id="layer1"
     transform="translate(-143.02551,-653.70772)">
    <path
       sodipodi:nodetypes="csccccccccsscscc"
       inkscape:connector-curvature="0"
       id="path4523"
       d="m 286.95808,659.35977 c -28.06745,-6.57583 -56.02087,-8.45945 -75.48462,0.0545 -19.99628,8.74686 -56.45188,10.53637 -63.76934,27.61081 -0.23376,0.54566 -0.45364,1.1002 -0.674,1.65336 -4.5e-4,9.2e-4 1e-5,10e-4 -9.5e-4,0.004 -0.24886,0.62505 -0.4902,1.25487 -0.72211,1.88912 -0.73079,1.99383 -1.37973,4.03175 -1.94018,6.11843 -17.13629,120.30047 133.96372,222.29216 221.89233,245.93666 80.62873,20.14054 178.72744,-3.67784 245.92321,-41.00583 35.14045,-21.99581 69.52878,-61.27152 83.40505,-95.43129 0,0 -128.24896,-9.23443 -170.58153,-24.13276 -37.86836,-13.32718 -71.35663,-38.63351 -83.39845,-52.68358 -6.59652,-7.69668 14.7963,-20.74197 14.7963,-20.74197 -15.45911,-14.42977 -72.35356,-10.40785 -93.2744,-21.17548 -19.92168,-10.25338 -48.10374,-21.52058 -76.17119,-28.09641 z"
       style="opacity:1;fill:#337ab7;fill-opacity:1;fill-rule:nonzero;stroke:none;stroke-width:1;stroke-opacity:1" />
    <g
       id="g4483"
       transform="matrix(0.48556104,-1.8648826,1.8648826,0.48556104,-1197.7582,825.45959)">
      <path
         inkscape:connector-curvature="0"
         id="path4181"
         d="m 243.49361,849.9558 c 1.58911,-18.94557 9.19056,-37.31287 14.19284,-44.50827 2.74026,-3.94165 12.65919,2.38626 12.65919,2.38626 4.76851,-8.80688 -5.25126,-32.48241 -2.81288,-43.35542 4.64388,-20.70746 7.2044,-57.04187 -5.24475,-72.85062 -6.39487,-8.12063 -11.5653,-24.6152 -20.26378,-25.93136 -0.27797,-0.042 -0.55824,-0.0764 -0.83805,-0.11139 -9.94641,13.82252 -22.06813,37.2692 -21.70567,59.0165 -18.79426,34.11555 -37.67669,66.59434 -37.05891,102.72282 -11.58558,33.46233 -2.5747,60.05817 12.31626,79.51576 1.69304,1.90545 3.4308,3.77069 5.21183,5.59416 0.10471,0.10208 0.20895,0.20461 0.31396,0.30635 12.64212,14.02874 31.87251,23.12847 48.5773,25.3538 0,0 -7.1238,-66.95956 -5.34734,-88.13859 z m -0.0148,-133.35376 c 8.57833,8.34059 1.15507,41.25848 -13.52523,54.58322 5.60509,-26.27051 0.19399,-48.56664 13.52523,-54.58322 z M 188.969,900.62439 c 0.0708,0.0841 0.14174,0.16795 0.21268,0.25191 l 0.038,0.0405 c -0.0829,-0.098 -0.16799,-0.19419 -0.25067,-0.29243 z"
         style="opacity:1;fill:#000000;fill-opacity:1;fill-rule:nonzero;stroke:none;stroke-opacity:1"
         sodipodi:nodetypes="sssssccccccccscccccccc" />
      <path
         inkscape:connector-curvature="0"
         id="path4158"
         d="m 237.19597,665.32045 c -57.74392,6.56094 -85.4609,88.54923 -86.23532,131.04173 0,43.50603 17.14914,83.00385 45.052,112.11224 -15.64148,-19.59226 -25.50403,-46.74212 -13.59105,-81.15007 -0.61778,-36.12848 18.26464,-68.60727 37.05891,-102.72282 -0.36246,-21.7473 11.75926,-45.19398 21.70567,-59.0165 -1.31111,-0.16392 -2.64077,-0.25422 -3.99021,-0.26458 z m 6.28282,51.28165 c -13.33124,6.01658 -7.92014,28.31271 -13.52523,54.58322 14.6803,-13.32474 22.10356,-46.24263 13.52523,-54.58322 z"
         style="fill:#ffffff;fill-opacity:1;fill-rule:evenodd;stroke:none;stroke-width:1px;stroke-linecap:butt;stroke-linejoin:miter;stroke-opacity:1"
         sodipodi:nodetypes="cccccccccc" />
    </g>
    <text
       xml:space="preserve"
       style="font-style:normal;font-weight:normal;font-size:40px;line-height:125%;font-family:sans-serif;letter-spacing:0px;word-spacing:0px;fill:#000000;fill-opacity:1;stroke:none;stroke-width:1px;stroke-linecap:butt;stroke-linejoin:miter;stroke-opacity:1"
       x="913.17792"
       y="700.8291"
       id="text4258"
       sodipodi:linespacing="125%"><tspan
         sodipodi:role="line"
         id="tspan4260"
         x="913.17792"
         y="700.8291" /></text>
  </g>
</svg>
