<?xml version="1.0" encoding="UTF-8" standalone="no"?>
<!-- Created with Inkscape (http://www.inkscape.org/) -->

<svg
   xmlns:dc="http://purl.org/dc/elements/1.1/"
   xmlns:cc="http://creativecommons.org/ns#"
   xmlns:rdf="http://www.w3.org/1999/02/22-rdf-syntax-ns#"
   xmlns:svg="http://www.w3.org/2000/svg"
   xmlns="http://www.w3.org/2000/svg"
   xmlns:sodipodi="http://sodipodi.sourceforge.net/DTD/sodipodi-0.dtd"
   xmlns:inkscape="http://www.inkscape.org/namespaces/inkscape"
   width="552.56213"
   height="296.25638"
   viewBox="0 0 552.5621 296.2564"
   id="svg2"
   version="1.1"
   inkscape:version="0.92.2 (5c3e80d, 2017-08-06)"
   sodipodi:docname="orca-white.svg"
   inkscape:export-filename="C:\Users\eric\Documents\NCLS Development\Orca\logo_complete_white_letters.png"
   inkscape:export-xdpi="90"
   inkscape:export-ydpi="90">
  <defs
     id="defs4" />
  <sodipodi:namedview
     id="base"
     pagecolor="#ffffff"
     bordercolor="#666666"
     borderopacity="1.0"
     inkscape:pageopacity="0.0"
     inkscape:pageshadow="2"
     inkscape:zoom="0.70710678"
     inkscape:cx="429.15909"
     inkscape:cy="-24.031785"
     inkscape:document-units="px"
     inkscape:current-layer="layer1"
     showgrid="false"
     fit-margin-top="0"
     fit-margin-left="0"
     fit-margin-right="0"
     fit-margin-bottom="0"
     units="px"
     inkscape:window-width="1920"
     inkscape:window-height="1057"
     inkscape:window-x="-8"
     inkscape:window-y="-8"
     inkscape:window-maximized="1" />
  <metadata
     id="metadata7">
    <rdf:RDF>
      <cc:Work
         rdf:about="">
        <dc:format>image/svg+xml</dc:format>
        <dc:type
           rdf:resource="http://purl.org/dc/dcmitype/StillImage" />
        <dc:title></dc:title>
      </cc:Work>
    </rdf:RDF>
  </metadata>
  <g
     inkscape:label="Layer 1"
     inkscape:groupmode="layer"
     id="layer1"
     transform="translate(-143.02593,-653.70857)">
    <path
       style="opacity:1;fill:#ffffff;fill-opacity:1;fill-rule:nonzero;stroke:none;stroke-width:1;stroke-opacity:1"
       d="M 102.96289,0.02148438 C 90.033137,-0.20715562 78.179141,1.4500563 68.447266,5.7070312 48.450986,14.453891 11.995194,16.241966 4.6777344,33.316406 c -0.23376,0.54566 -0.4534682,1.101137 -0.6738282,1.654297 -4.5e-4,9.2e-4 9.6e-4,9.06e-4 0,0.0039 C 3.7550462,35.599659 3.51316,36.229031 3.28125,36.863281 2.55046,38.857111 1.9022469,40.895742 1.3417969,42.982422 -15.794493,163.28289 135.30577,265.27347 223.23438,288.91797 c 80.62873,20.14054 178.7261,-3.67592 245.92187,-41.00391 35.14045,-21.99581 69.52998,-61.27187 83.40625,-95.43164 0,0 -128.24946,-9.23448 -170.58203,-24.13281 C 344.11211,115.02243 310.62385,89.716086 298.58203,75.666016 291.98551,67.969336 313.37891,54.923828 313.37891,54.923828 297.9198,40.494058 241.02436,44.515677 220.10352,33.748047 200.18184,23.494667 172.00104,12.228174 143.93359,5.6523438 h -0.002 C 129.89792,2.3644288 115.89265,0.25012437 102.96289,0.02148438 Z m 4.91406,13.23242162 c 35.39978,0.626255 79.63273,16.744985 106.9043,30.78125 19.0929,9.82681 68.11035,2.637651 82.21875,15.806641 0,0 -16.61585,15.425049 -10.5957,22.449219 10.98967,12.82247 41.55168,35.917334 76.11132,48.080074 38.63384,13.5966 166.96485,32.82422 166.96485,32.82422 -12.26118,30.07194 -38.56867,61.51504 -70.86914,78.2793 -0.24072,0.14643 -0.4834,0.29179 -0.72461,0.4375 -4.26536,2.43601 -8.58737,4.76984 -12.96289,7.00195 C 401.40724,267.2361 347.43406,271.12719 290.65625,233.27344 222.98091,216.88294 171.57972,165.89943 117.08398,114.28516 76.351834,104.40147 38.512243,70.410961 17.564453,45.150391 c 0.20111,-0.50482 0.401934,-1.011786 0.615235,-1.509766 6.67813,-15.58257 39.948135,-17.214646 58.197265,-25.197266 8.88157,-3.885022 19.700073,-5.398204 31.499997,-5.189453 z m 17.67578,49.707032 c -4.64174,-0.02893 -8.6532,0.818715 -11.73437,2.685546 4.74708,27.78261 48.95481,28.517793 95.22461,51.726566 -14.952,-28.558418 -58.42483,-54.25587 -83.49024,-54.412112 z m 305.64454,193.369142 -0.0937,0.0508 c -0.19102,0.0915 -0.38106,0.18224 -0.57227,0.27344 0.22335,-0.10649 0.44301,-0.21721 0.66602,-0.32422 z"
       transform="translate(143.02554,653.70772)"
       id="path4523"
       inkscape:connector-curvature="0" />
  </g>
</svg>
